# Made in Blockbench 4.12.4
mtllib steam_turbine.mtl

o rotor
v -0.3749999999999998 0.375 -0.5
v -0.3750000000000002 0.375 0.5
v -0.3749999999999998 -0.375 -0.5
v -0.3750000000000002 -0.375 0.5
v 0.3750000000000002 0.375 -0.5
v 0.3749999999999998 0.375 0.5
v 0.3750000000000002 -0.375 -0.5
v 0.3749999999999998 -0.375 0.5
v -0.3749999999999982 0.375 -5.5
v -0.37499999999999867 0.375 -4.5
v -0.3749999999999982 -0.375 -5.5
v -0.37499999999999867 -0.375 -4.5
v 0.37500000000000266 0.375 -5.5
v 0.37500000000000133 0.375 -4.5
v 0.37500000000000266 -0.375 -5.5
v 0.37500000000000133 -0.375 -4.5
vt 0.21875 0.1484375
vt 0.09375 0.1484375
vt 0.09375 0.0546875
vt 0.21875 0.0546875
vt 0.21875 0.0546875
vt 0.21875 0.1484375
vt 0.09375 0.1484375
vt 0.09375 0.0546875
vt 0.09375 0.1484375
vt 0.09375 0.0546875
vt 0.21875 0.0546875
vt 0.21875 0.1484375
vt 0.09375 0.0546875
vt 0.21875 0.0546875
vt 0.21875 0.1484375
vt 0.09375 0.1484375
vt 0.09375 0.0546875
vt 0.09375 0.1484375
vt 0 0.1484375
vt 0 0.0546875
vt 0.09375 0.1484375
vt 0 0.1484375
vt 0 0.0546875
vt 0.09375 0.0546875
vt 0.21875 0.1484375
vt 0.09375 0.1484375
vt 0.09375 0.0546875
vt 0.21875 0.0546875
vt 0.21875 0.0546875
vt 0.21875 0.1484375
vt 0.09375 0.1484375
vt 0.09375 0.0546875
vt 0.09375 0.1484375
vt 0.09375 0.0546875
vt 0.21875 0.0546875
vt 0.21875 0.1484375
vt 0.09375 0.0546875
vt 0.21875 0.0546875
vt 0.21875 0.1484375
vt 0.09375 0.1484375
vt 0.09375 0.0546875
vt 0.09375 0.1484375
vt 0 0.1484375
vt 0 0.0546875
vt 0.09375 0.1484375
vt 0 0.1484375
vt 0 0.0546875
vt 0.09375 0.0546875
vn -1 0 -4.440892098500626e-16
vn 1 0 4.440892098500626e-16
vn 0 1 0
vn 0 -1 0
vn 0 0 -1
vn 0 0 1
vn -1 0 -4.440892098500626e-16
vn 1 0 1.3322676295501878e-15
vn 0 1 0
vn 0 -1 0
vn 0 0 -1
vn 0 0 1
usemtl m_490693ff-1130-0632-c7ef-becf5e2e3568
f 2/1/1 1/2/1 3/3/1 4/4/1
f 7/5/2 5/6/2 6/7/2 8/8/2
f 5/9/3 1/10/3 2/11/3 6/12/3
f 4/13/4 3/14/4 7/15/4 8/16/4
f 3/17/5 1/18/5 5/19/5 7/20/5
f 6/21/6 2/22/6 4/23/6 8/24/6
f 10/25/7 9/26/7 11/27/7 12/28/7
f 15/29/8 13/30/8 14/31/8 16/32/8
f 13/33/9 9/34/9 10/35/9 14/36/9
f 12/37/10 11/38/10 15/39/10 16/40/10
f 11/41/11 9/42/11 13/43/11 15/44/11
f 14/45/12 10/46/12 12/47/12 16/48/12