# Made in Blockbench 4.12.4
mtllib steam_turbine_rotor.mtl

o rotor
v 0.125 1.125002 -9
v 0.125 1.8750019999999998 -9
v 0.875 1.8750019999999998 -9
v 0.875 1.125002 -9
v 0.875 1.8750019999999998 -8
v 0.875 1.125002 -8
v 0.125 1.8750019999999998 -8
v 0.125 1.125002 -8
v 0.125 1.1250010000000001 -4
v 0.125 1.8750010000000001 -4
v 0.875 1.8750010000000001 -4
v 0.875 1.1250010000000001 -4
v 0.875 1.8750010000000001 -3
v 0.875 1.1250010000000001 -3
v 0.125 1.8750010000000001 -3
v 0.125 1.1250010000000001 -3
vt 0 0.05468799999999996
vt 0 0.14843799999999996
vt 0.09375 0.14843799999999996
vt 0.09375 0.05468799999999996
vt 0.09375 0.05468799999999996
vt 0.09375 0.14843799999999996
vt 0.21875 0.14843799999999996
vt 0.21875 0.05468799999999996
vt 0 0.05468799999999996
vt 0 0.14843799999999996
vt 0.09375 0.14843799999999996
vt 0.09375 0.05468799999999996
vt 0.09375 0.05468799999999996
vt 0.09375 0.14843799999999996
vt 0.21875 0.14843799999999996
vt 0.21875 0.05468799999999996
vt 0.09375 0.14843799999999996
vt 0.21875 0.14843799999999996
vt 0.21875 0.05468799999999996
vt 0.09375 0.05468799999999996
vt 0.09375 0.14843799999999996
vt 0.21875 0.14843799999999996
vt 0.21875 0.05468799999999996
vt 0.09375 0.05468799999999996
vt 0 0.05468799999999996
vt 0 0.14843799999999996
vt 0.09375 0.14843799999999996
vt 0.09375 0.05468799999999996
vt 0.09375 0.05468799999999996
vt 0.09375 0.14843799999999996
vt 0.21875 0.14843799999999996
vt 0.21875 0.05468799999999996
vt 0 0.05468799999999996
vt 0 0.14843799999999996
vt 0.09375 0.14843799999999996
vt 0.09375 0.05468799999999996
vt 0.09375 0.05468799999999996
vt 0.09375 0.14843799999999996
vt 0.21875 0.14843799999999996
vt 0.21875 0.05468799999999996
vt 0.09375 0.14843799999999996
vt 0.21875 0.14843799999999996
vt 0.21875 0.05468799999999996
vt 0.09375 0.05468799999999996
vt 0.09375 0.14843799999999996
vt 0.21875 0.14843799999999996
vt 0.21875 0.05468799999999996
vt 0.09375 0.05468799999999996
vn 0 0 -1
vn 1 0 0
vn 0 0 1
vn -1 0 0
vn 0 1 0
vn 0 -1 0
vn 0 0 -1
vn 1 0 0
vn 0 0 1
vn -1 0 0
vn 0 1 0
vn 0 -1 0
usemtl m_490693ff-1130-0632-c7ef-becf5e2e3568
f 1/1/1 2/2/1 3/3/1 4/4/1
f 4/5/2 3/6/2 5/7/2 6/8/2
f 6/9/3 5/10/3 7/11/3 8/12/3
f 8/13/4 7/14/4 2/15/4 1/16/4
f 2/17/5 7/18/5 5/19/5 3/20/5
f 8/21/6 1/22/6 4/23/6 6/24/6
f 9/25/7 10/26/7 11/27/7 12/28/7
f 12/29/8 11/30/8 13/31/8 14/32/8
f 14/33/9 13/34/9 15/35/9 16/36/9
f 16/37/10 15/38/10 10/39/10 9/40/10
f 10/41/11 15/42/11 13/43/11 11/44/11
f 16/45/12 9/46/12 12/47/12 14/48/12