# Made in Blockbench 4.12.5
mtllib distiller_mirrored.mtl

o base_mirrored
v 1.4375 2.1875 -0.5
v 1.4375 2.6875 -0.5
v 1.4375 2.6875 -0.4375
v 1.4375 2.1875 -0.4375
v 1.5 2.6875 -0.4375
v 1.5 2.1875 -0.4375
v 1.5 2.6875 -0.5
v 1.5 2.1875 -0.5
v 1.4375 2.1875 1.4375
v 1.4375 2.6875 1.4375
v 1.4375 2.6875 1.5
v 1.4375 2.1875 1.5
v 1.5 2.6875 1.5
v 1.5 2.1875 1.5
v 1.5 2.6875 1.4375
v 1.5 2.1875 1.4375
v 1.4375 1.3125 1.4375
v 1.4375 1.3125 1.5
v 1.5625 2.1875 1.5
v 1.5625 1.3125 1.5
v 1.5625 2.1875 1.4375
v 1.5625 1.3125 1.4375
v 1.4375 1.3125 -0.5
v 1.4375 1.3125 -0.4375
v 1.5625 2.1875 -0.4375
v 1.5625 1.3125 -0.4375
v 1.5625 2.1875 -0.5
v 1.5625 1.3125 -0.5
v -0.5 1.3125 -0.5
v -0.5 2.6875 -0.5
v -0.5 2.6875 -0.4375
v -0.5 1.3125 -0.4375
v -0.4375 2.6875 -0.4375
v -0.4375 1.3125 -0.4375
v -0.4375 2.6875 -0.5
v -0.4375 1.3125 -0.5
v -0.49875 1.3125 1.4375
v -0.49875 2.6875 1.4375
v -0.49875 2.6875 1.5
v -0.49875 1.3125 1.5
v -0.43625 2.6875 1.5
v -0.43625 1.3125 1.5
v -0.43625 2.6875 1.4375
v -0.43625 1.3125 1.4375
v 2.4362500000000002 1.3125 1.4375
v 2.4362500000000002 2.1875 1.4375
v 2.4362500000000002 2.1875 1.5
v 2.4362500000000002 1.3125 1.5
v 2.4987500000000002 2.1875 1.5
v 2.4987500000000002 1.3125 1.5
v 2.4987500000000002 2.1875 1.4375
v 2.4987500000000002 1.3125 1.4375
v 2.4375 1.3125 -0.5
v 2.4375 2.1875 -0.5
v 2.4375 2.1875 -0.4375
v 2.4375 1.3125 -0.4375
v 2.5 2.1875 -0.4375
v 2.5 1.3125 -0.4375
v 2.5 2.1875 -0.5
v 2.5 1.3125 -0.5
v 0.25 0.5 2.125
v 0.25 1 2.125
v 0.25 1 2.375
v 0.25 0.5 2.375
v 0.375 1 2.375
v 0.375 0.5 2.375
v 0.375 1 2.125
v 0.375 0.5 2.125
v -0.375 0.5 2.125
v -0.375 1 2.125
v -0.375 1 2.375
v -0.375 0.5 2.375
v -0.25 1 2.375
v -0.25 0.5 2.375
v -0.25 1 2.125
v -0.25 0.5 2.125
v 0.5 0.625 1.25
v 0.5 0.875 1.25
v 0.5 0.875 1.375
v 0.5 0.625 1.375
v 1.5 0.875 1.375
v 1.5 0.625 1.375
v 1.5 0.875 1.25
v 1.5 0.625 1.25
v -0.18775000000000008 0.625 -0.375
v -0.18775000000000008 0.875 -0.375
v -0.18775000000000008 0.875 -0.25
v -0.18775000000000008 0.625 -0.25
v 0.4997499999999999 0.875 -0.25
v 0.4997499999999999 0.625 -0.25
v 0.4997499999999999 0.875 -0.375
v 0.4997499999999999 0.625 -0.375
v 1.5 0.625 -0.375
v 1.5 0.875 -0.375
v 1.5 0.875 -0.25
v 1.5 0.625 -0.25
v 2.1875 0.875 -0.25
v 2.1875 0.625 -0.25
v 2.1875 0.875 -0.375
v 2.1875 0.625 -0.375
v -0.37549999999999994 0.625 -0.1875
v -0.37549999999999994 0.875 -0.1875
v -0.37549999999999994 0.875 0.5
v -0.37549999999999994 0.625 0.5
v -0.25049999999999994 0.875 0.5
v -0.25049999999999994 0.625 0.5
v -0.25049999999999994 0.875 -0.1875
v -0.25049999999999994 0.625 -0.1875
v 2.2504999999999997 0.625 -0.1875
v 2.2504999999999997 0.875 -0.1875
v 2.2504999999999997 0.875 0.5
v 2.2504999999999997 0.625 0.5
v 2.3754999999999997 0.875 0.5
v 2.3754999999999997 0.625 0.5
v 2.3754999999999997 0.875 -0.1875
v 2.3754999999999997 0.625 -0.1875
v 2.1879999999999997 0.5 -0.4375
v 2.1879999999999997 1 -0.4375
v 2.1879999999999997 1 -0.1875
v 2.1879999999999997 0.5 -0.1875
v 2.4379999999999997 1 -0.1875
v 2.4379999999999997 0.5 -0.1875
v 2.4379999999999997 1 -0.4375
v 2.4379999999999997 0.5 -0.4375
v -0.4375 0.5 -0.4375
v -0.4375 1 -0.4375
v -0.4375 1 -0.1875
v -0.4375 0.5 -0.1875
v -0.1875 1 -0.1875
v -0.1875 0.5 -0.1875
v -0.1875 1 -0.4375
v -0.1875 0.5 -0.4375
v 2.4375 2.1875 1.4375
v 2.4375 1.3125 1.4375
v 1.5 2.5 -0.5
v 1.5 2.5 1.5
v 2.5 2.5 1.5
v 2.5 2.1875 1.5
v 2.5 2.5 -0.5
v -0.4375 2.6875 1.4375
v -0.4375 1.3125 1.4375
v -0.5 3 -0.5
v -0.5 3 1.5
v -0.5 2.6875 1.5
v 1.5 3 1.5
v 1.5 3 -0.5
v -0.5 1 -0.5
v -0.5 1.3125 1.5
v -0.5 1 1.5
v 2.5 1.3125 1.5
v 2.5 1 1.5
v 2.5 1 -0.5
v -0.5 1 2
v -0.5 2 2
v -0.5 2 2.5
v -0.5 1 2.5
v 0.5 2 2.5
v 0.5 1 2.5
v 0.5 2 2
v 0.5 1 2
v 0.5 0.5 -0.5
v 0.5 1 -0.5
v 0.5 1 0.5
v 0.5 0.5 0.5
v 1.5 1 0.5
v 1.5 0.5 0.5
v 1.5 1 -0.5
v 1.5 0.5 -0.5
v -0.5 0.5 0.5
v -0.5 1 0.5
v -0.5 0.5 1.5
v 0.5 1 1.5
v 0.5 0.5 1.5
v 1.5 1 1.5
v 1.5 0.5 1.5
v 2.5 0.5 1.5
v 2.5 1 0.5
v 2.5 0.5 0.5
v 1.5 0.5 1.50004625
v 1.5 2 1.5
v 1.5 2 2.5
v 1.5 0.5 2.50004625
v 2.5 2 2.5
v 2.5 0.5 2.50004625
v 2.5 2 1.5
v 2.5 0.5 1.50004625
v -0.5 0 -0.5
v -0.5 0.5 -0.5
v -0.5 0.5 2.5
v -0.5 0 2.5
v 2.5 0.5 2.5
v 2.5 0 2.5
v 2.5 0.5 -0.5
v 2.5 0 -0.5
vt 0.40625 0.375
vt 0.39843796875 0.375
vt 0.39843796875 0.3125
vt 0.40625 0.3125
vt 0.39843796875 0.375
vt 0.390625 0.375
vt 0.390625 0.3125
vt 0.39843796875 0.3125
vt 0.39843796875 0.375
vt 0.390625 0.375
vt 0.390625 0.3125
vt 0.39843796875 0.3125
vt 0.40625 0.375
vt 0.39843796875 0.375
vt 0.39843796875 0.3125
vt 0.40625 0.3125
vt 1 1
vt 0 1
vt 0 0
vt 1 0
vt 1 1
vt 0 1
vt 0 0
vt 1 0
vt 0.40625 0.375
vt 0.39843796875 0.375
vt 0.39843796875 0.3125
vt 0.40625 0.3125
vt 0.40625 0.375
vt 0.39843796875 0.375
vt 0.39843796875 0.3125
vt 0.40625 0.3125
vt 0.39843796875 0.375
vt 0.390625 0.375
vt 0.390625 0.3125
vt 0.39843796875 0.3125
vt 0.39843796875 0.375
vt 0.390625 0.375
vt 0.390625 0.3125
vt 0.39843796875 0.3125
vt 1 1
vt 0 1
vt 0 0
vt 1 0
vt 1 1
vt 0 1
vt 0 0
vt 1 0
vt 0.390625 0.421875
vt 0.38281203125 0.421875
vt 0.38281203125 0.3125
vt 0.390625 0.3125
vt 0.375 0.421875
vt 0.390625 0.421875
vt 0.390625 0.3125
vt 0.375 0.3125
vt 0.38281203125 0.421875
vt 0.375 0.421875
vt 0.375 0.3125
vt 0.38281203125 0.3125
vt 1 1
vt 0 1
vt 0 0
vt 1 0
vt 1 1
vt 0 1
vt 0 0
vt 1 0
vt 1 1
vt 0 1
vt 0 0
vt 1 0
vt 0.390625 0.421875
vt 0.38281203125 0.421875
vt 0.38281203125 0.3125
vt 0.390625 0.3125
vt 1 1
vt 0 1
vt 0 0
vt 1 0
vt 0.38281203125 0.421875
vt 0.375 0.421875
vt 0.375 0.3125
vt 0.38281203125 0.3125
vt 0.390625 0.421875
vt 0.375 0.421875
vt 0.375 0.3125
vt 0.390625 0.3125
vt 1 1
vt 0 1
vt 0 0
vt 1 0
vt 1 1
vt 0 1
vt 0 0
vt 1 0
vt 0.421875 0.484375
vt 0.41406203125 0.484375
vt 0.41406203125 0.3125
vt 0.421875 0.3125
vt 0.41406203125 0.484375
vt 0.40625 0.484375
vt 0.40625 0.3125
vt 0.41406203125 0.3125
vt 0.41406203125 0.484375
vt 0.40625 0.484375
vt 0.40625 0.3125
vt 0.41406203125 0.3125
vt 0.421875 0.484375
vt 0.41406203125 0.484375
vt 0.41406203125 0.3125
vt 0.421875 0.3125
vt 1 1
vt 0 1
vt 0 0
vt 1 0
vt 1 1
vt 0 1
vt 0 0
vt 1 0
vt 0.421875 0.484375
vt 0.41406203125 0.484375
vt 0.41406203125 0.3125
vt 0.421875 0.3125
vt 0.421875 0.484375
vt 0.41406203125 0.484375
vt 0.41406203125 0.3125
vt 0.421875 0.3125
vt 0.41406203125 0.484375
vt 0.40625 0.484375
vt 0.40625 0.3125
vt 0.41406203125 0.3125
vt 0.41406203125 0.484375
vt 0.40625 0.484375
vt 0.40625 0.3125
vt 0.41406203125 0.3125
vt 1 1
vt 0 1
vt 0 0
vt 1 0
vt 1 1
vt 0 1
vt 0 0
vt 1 0
vt 0.390625 0.421875
vt 0.38281203125 0.421875
vt 0.38281203125 0.3125
vt 0.390625 0.3125
vt 0.390625 0.421875
vt 0.38281203125 0.421875
vt 0.38281203125 0.3125
vt 0.390625 0.3125
vt 0.38281203125 0.421875
vt 0.375 0.421875
vt 0.375 0.3125
vt 0.38281203125 0.3125
vt 0.38281203125 0.421875
vt 0.375 0.421875
vt 0.375 0.3125
vt 0.38281203125 0.3125
vt 1 1
vt 0 1
vt 0 0
vt 1 0
vt 1 1
vt 0 1
vt 0 0
vt 1 0
vt 0.390625 0.421875
vt 0.38281203125 0.421875
vt 0.38281203125 0.3125
vt 0.390625 0.3125
vt 0.38281203125 0.421875
vt 0.375 0.421875
vt 0.375 0.3125
vt 0.38281203125 0.3125
vt 0.38281203125 0.421875
vt 0.375 0.421875
vt 0.375 0.3125
vt 0.38281203125 0.3125
vt 0.390625 0.421875
vt 0.38281203125 0.421875
vt 0.38281203125 0.3125
vt 0.390625 0.3125
vt 1 1
vt 0 1
vt 0 0
vt 1 0
vt 1 1
vt 0 1
vt 0 0
vt 1 0
vt 0.28125 0.5
vt 0.25 0.5
vt 0.25 0.4375
vt 0.28125 0.4375
vt 0.296875 0.5
vt 0.28125 0.5
vt 0.28125 0.4375
vt 0.296875 0.4375
vt 0.28125 0.5
vt 0.25 0.5
vt 0.25 0.4375
vt 0.28125 0.4375
vt 0.296875 0.5
vt 0.28125 0.5
vt 0.28125 0.4375
vt 0.296875 0.4375
vt 1 1
vt 0 1
vt 0 0
vt 1 0
vt 1 1
vt 0 1
vt 0 0
vt 1 0
vt 0.28125 0.5
vt 0.25 0.5
vt 0.25 0.4375
vt 0.28125 0.4375
vt 0.296875 0.5
vt 0.28125 0.5
vt 0.28125 0.4375
vt 0.296875 0.4375
vt 0.28125 0.5
vt 0.25 0.5
vt 0.25 0.4375
vt 0.28125 0.4375
vt 0.296875 0.5
vt 0.28125 0.5
vt 0.28125 0.4375
vt 0.296875 0.4375
vt 1 1
vt 0 1
vt 0 0
vt 1 0
vt 1 1
vt 0 1
vt 0 0
vt 1 0
vt 1 1
vt 0 1
vt 0 0
vt 1 0
vt 0.125 0.0625
vt 0 0.0625
vt 0 0.03125
vt 0.125 0.03125
vt 1 1
vt 0 1
vt 0 0
vt 1 0
vt 0.125 0.0625
vt 0 0.0625
vt 0 0.03125
vt 0.125 0.03125
vt 0.125 0.03125
vt 0 0.03125
vt 0 0.015625
vt 0.125 0.015625
vt 0.125 0.03125
vt 0 0.03125
vt 0 0.015625
vt 0.125 0.015625
vt 1 1
vt 0 1
vt 0 0
vt 1 0
vt 0.08593796875 0.0625
vt 0 0.0625
vt 0 0.03125
vt 0.08593796875 0.03125
vt 1 1
vt 0 1
vt 0 0
vt 1 0
vt 0.08593796875 0.0625
vt 0 0.0625
vt 0 0.03125
vt 0.08593796875 0.03125
vt 0.08593796875 0.03125
vt 0 0.03125
vt 0 0.015625
vt 0.08593796875 0.015625
vt 0.08593796875 0.03125
vt 0 0.03125
vt 0 0.015625
vt 0.08593796875 0.015625
vt 1 1
vt 0 1
vt 0 0
vt 1 0
vt 0.08593796875 0.0625
vt 0 0.0625
vt 0 0.03125
vt 0.08593796875 0.03125
vt 1 1
vt 0 1
vt 0 0
vt 1 0
vt 0.08593796875 0.0625
vt 0 0.0625
vt 0 0.03125
vt 0.08593796875 0.03125
vt 0.08593796875 0.03125
vt 0 0.03125
vt 0 0.015625
vt 0.08593796875 0.015625
vt 0.08593796875 0.03125
vt 0 0.03125
vt 0 0.015625
vt 0.08593796875 0.015625
vt 0.08593796875 0.0625
vt 0 0.0625
vt 0 0.03125
vt 0.08593796875 0.03125
vt 1 1
vt 0 1
vt 0 0
vt 1 0
vt 0.08593796875 0.0625
vt 0 0.0625
vt 0 0.03125
vt 0.08593796875 0.03125
vt 1 1
vt 0 1
vt 0 0
vt 1 0
vt 0.08593796875 0.03125
vt 0 0.03125
vt 0 0.015625
vt 0.08593796875 0.015625
vt 0.08593796875 0.03125
vt 0 0.03125
vt 0 0.015625
vt 0.08593796875 0.015625
vt 1 1
vt 0 1
vt 0 0
vt 1 0
vt 1 1
vt 0 1
vt 0 0
vt 1 0
vt 0.08593796875 0.03125
vt 0 0.03125
vt 0 0.015625
vt 0.08593796875 0.015625
vt 0.08593796875 0.03125
vt 0 0.03125
vt 0 0.015625
vt 0.08593796875 0.015625
vt 0.375 0.5
vt 0.34375 0.5
vt 0.34375 0.4375
vt 0.375 0.4375
vt 0.375 0.5
vt 0.34375 0.5
vt 0.34375 0.4375
vt 0.375 0.4375
vt 0.375 0.5
vt 0.34375 0.5
vt 0.34375 0.4375
vt 0.375 0.4375
vt 0.375 0.5
vt 0.34375 0.5
vt 0.34375 0.4375
vt 0.375 0.4375
vt 1 1
vt 0 1
vt 0 0
vt 1 0
vt 1 1
vt 0 1
vt 0 0
vt 1 0
vt 0.375 0.5
vt 0.34375 0.5
vt 0.34375 0.4375
vt 0.375 0.4375
vt 0.375 0.5
vt 0.34375 0.5
vt 0.34375 0.4375
vt 0.375 0.4375
vt 0.375 0.5
vt 0.34375 0.5
vt 0.34375 0.4375
vt 0.375 0.4375
vt 0.375 0.5
vt 0.34375 0.5
vt 0.34375 0.4375
vt 0.375 0.4375
vt 1 1
vt 0 1
vt 0 0
vt 1 0
vt 1 1
vt 0 1
vt 0 0
vt 1 0
vt 1 1
vt 0 1
vt 0 0
vt 1 0
vt 1 0.390625
vt 0.890625 0.390625
vt 0.890625 0.28125
vt 1 0.28125
vt 1 0.28125
vt 0.765625 0.28125
vt 0.765625 0.171875
vt 1 0.171875
vt 1 0.390625
vt 0.890625 0.390625
vt 0.890625 0.28125
vt 1 0.28125
vt 1 1
vt 0 1
vt 0 0
vt 1 0
vt 1 1
vt 0 1
vt 0 0
vt 1 0
vt 0.625 0.27343796875000004
vt 0.375 0.27343796875000004
vt 0.375 0.234375
vt 0.625 0.234375
vt 0.5 0.234375
vt 0.375 0.234375
vt 0.375 0.19531203124999996
vt 0.5 0.19531203124999996
vt 0.625 0.27343796875000004
vt 0.375 0.27343796875000004
vt 0.375 0.234375
vt 0.625 0.234375
vt 0.5 0.234375
vt 0.375 0.234375
vt 0.375 0.19531203124999996
vt 0.5 0.19531203124999996
vt 0.625 0.8125
vt 0.375 0.8125
vt 0.375 0.6875
vt 0.625 0.6875
vt 0.625 0.8125
vt 0.375 0.8125
vt 0.375 0.6875
vt 0.625 0.6875
vt 1 0.171875
vt 0.765625 0.171875
vt 0.765625 0
vt 1 0
vt 1 0.171875
vt 0.765625 0.171875
vt 0.765625 0
vt 1 0
vt 1 0.171875
vt 0.765625 0.171875
vt 0.765625 0
vt 1 0
vt 1 0.171875
vt 0.765625 0.171875
vt 0.765625 0
vt 1 0
vt 1 1
vt 0 1
vt 0 0
vt 1 0
vt 0 0
vt 0 1
vt 1 1
vt 1 0
vt 0.625 0.27343796875000004
vt 0.375 0.27343796875000004
vt 0.375 0.234375
vt 0.625 0.234375
vt 0.625 0.27343796875000004
vt 0.375 0.27343796875000004
vt 0.375 0.234375
vt 0.625 0.234375
vt 0.625 0.27343796875000004
vt 0.375 0.27343796875000004
vt 0.375 0.234375
vt 0.625 0.234375
vt 0.625 0.27343796875000004
vt 0.375 0.27343796875000004
vt 0.375 0.234375
vt 0.625 0.234375
vt 0.625 0.8125
vt 0.375 0.8125
vt 0.375 0.5625
vt 0.625 0.5625
vt 0.625 0.8125
vt 0.375 0.8125
vt 0.375 0.5625
vt 0.625 0.5625
vt 0.75 0.3125
vt 0.375 0.3125
vt 0.375 0.27343796875000004
vt 0.75 0.27343796875000004
vt 0.625 0.234375
vt 0.375 0.234375
vt 0.375 0.27343796875000004
vt 0.625 0.27343796875000004
vt 0.75 0.3125
vt 0.375 0.3125
vt 0.375 0.27343796875000004
vt 0.75 0.27343796875000004
vt 0.375 0.3125
vt 0 0.3125
vt 0 0.0625
vt 0.375 0.0625
vt 0.375 0.3125
vt 0 0.3125
vt 0 0.0625
vt 0.375 0.0625
vt 0.0625 0.4375
vt 0 0.4375
vt 0 0.3125
vt 0.0625 0.3125
vt 0.25 0.4375
vt 0.125 0.4375
vt 0.125 0.3125
vt 0.25 0.3125
vt 0.125 0.4375
vt 0.0625 0.4375
vt 0.0625 0.3125
vt 0.125 0.3125
vt 0.125 0.4375
vt 0 0.4375
vt 0 0.3125
vt 0.125 0.3125
vt 0.0625 0.4375
vt 0 0.4375
vt 0 0.3125
vt 0.0625 0.3125
vt 0.0625 0.4375
vt 0 0.4375
vt 0 0.3125
vt 0.0625 0.3125
vt 0.125 0.4375
vt 0 0.4375
vt 0 0.375
vt 0.125 0.375
vt 0.125 0.4375
vt 0 0.4375
vt 0 0.375
vt 0.125 0.375
vt 0.125 0.4375
vt 0 0.4375
vt 0 0.375
vt 0.125 0.375
vt 0.25 0.5
vt 0.125 0.5
vt 0.125 0.4375
vt 0.25 0.4375
vt 1 1
vt 0 1
vt 0 0
vt 1 0
vt 1 1
vt 0 1
vt 0 0
vt 1 0
vt 0.125 0.5
vt 0 0.5
vt 0 0.4375
vt 0.125 0.4375
vt 0.125 0.4375
vt 0 0.4375
vt 0 0.375
vt 0.125 0.375
vt 0.125 0.4375
vt 0 0.4375
vt 0 0.375
vt 0.125 0.375
vt 0.125 0.4375
vt 0 0.4375
vt 0 0.375
vt 0.125 0.375
vt 1 1
vt 0 1
vt 0 0
vt 1 0
vt 0.125 0.4375
vt 0 0.4375
vt 0 0.375
vt 0.125 0.375
vt 1 1
vt 0 1
vt 0 0
vt 1 0
vt 0.125 0.4375
vt 0 0.4375
vt 0 0.375
vt 0.125 0.375
vt 1 1
vt 0 1
vt 0 0
vt 1 0
vt 0.5 1
vt 0.375 1
vt 0.375 0.8125
vt 0.5 0.8125
vt 0.625 1
vt 0.5 1
vt 0.5 0.8125
vt 0.625 0.8125
vt 0.5 1
vt 0.375 1
vt 0.375 0.8125
vt 0.5 0.8125
vt 0.625 1
vt 0.5 1
vt 0.5 0.8125
vt 0.625 0.8125
vt 0.375 0.4375
vt 0.25 0.4375
vt 0.25 0.3125
vt 0.375 0.3125
vt 0.375 0.625
vt 0 0.625
vt 0 0.5625
vt 0.375 0.5625
vt 0.375 0.5625
vt 0 0.5625
vt 0 0.5
vt 0.375 0.5
vt 0.375 0.625
vt 0 0.625
vt 0 0.5625
vt 0.375 0.5625
vt 0.08593796875 0.0625
vt 0 0.0625
vt 0 0.03125
vt 0.08593796875 0.03125
vt 0.25 0.5
vt 0.125 0.5
vt 0.125 0.4375
vt 0.25 0.4375
vt 0.375 0.625
vt 0 0.625
vt 0 0.5625
vt 0.375 0.5625
vt 0.08593796875 0.0625
vt 0 0.0625
vt 0 0.03125
vt 0.08593796875 0.03125
vt 1 1
vt 0 1
vt 0 0
vt 1 0
vt 1 1
vt 0 1
vt 0 0
vt 1 0
vt 1 1
vt 0 1
vt 0 0
vt 1 0
vt 1 1
vt 0.625 1
vt 0.625 0.6328120312500001
vt 1 0.6328120312500001
vt 0.375 1
vt 0 1
vt 0 0.625
vt 0.375 0.625
vt 0.625 0.234375
vt 0.375 0.234375
vt 0.375 0.27343796875000004
vt 0.625 0.27343796875000004
vn -1 0 0
vn 0 0 1
vn 1 0 0
vn 0 0 -1
vn 0 1 0
vn 0 -1 0
vn -1 0 0
vn 0 0 1
vn 1 0 0
vn 0 0 -1
vn 0 1 0
vn 0 -1 0
vn -1 0 0
vn 0 0 1
vn 1 0 0
vn 0 0 -1
vn 0 1 0
vn 0 -1 0
vn -1 0 0
vn 0 0 1
vn 1 0 0
vn 0 0 -1
vn 0 1 0
vn 0 -1 0
vn -1 0 0
vn 0 0 1
vn 1 0 0
vn 0 0 -1
vn 0 1 0
vn 0 -1 0
vn -1 0 0
vn 0 0 1
vn 1 0 0
vn 0 0 -1
vn 0 1 0
vn 0 -1 0
vn -1 0 0
vn 0 0 1
vn 1 0 0
vn 0 0 -1
vn 0 1 0
vn 0 -1 0
vn -1 0 0
vn 0 0 1
vn 1 0 0
vn 0 0 -1
vn 0 1 0
vn 0 -1 0
vn -1 0 0
vn 0 0 1
vn 1 0 0
vn 0 0 -1
vn 0 1 0
vn 0 -1 0
vn -1 0 0
vn 0 0 1
vn 1 0 0
vn 0 0 -1
vn 0 1 0
vn 0 -1 0
vn -1 0 0
vn 0 0 1
vn 1 0 0
vn 0 0 -1
vn 0 1 0
vn 0 -1 0
vn -1 0 0
vn 0 0 1
vn 1 0 0
vn 0 0 -1
vn 0 1 0
vn 0 -1 0
vn -1 0 0
vn 0 0 1
vn 1 0 0
vn 0 0 -1
vn 0 1 0
vn 0 -1 0
vn -1 0 0
vn 0 0 1
vn 1 0 0
vn 0 0 -1
vn 0 1 0
vn 0 -1 0
vn 0 0 1
vn 0 0 -1
vn 0 1 0
vn 0 -1 0
vn -1 0 0
vn 0 0 1
vn 1 0 0
vn 0 0 -1
vn 0 1 0
vn 0 -1 0
vn -1 0 0
vn 0 0 1
vn 1 0 0
vn 0 0 -1
vn 0 1 0
vn 0 -1 0
vn -1 0 0
vn 0 0 1
vn 1 0 0
vn 0 0 -1
vn 0 1 0
vn 0 -1 0
vn -1 0 0
vn 0 0 1
vn 1 0 0
vn 0 0 -1
vn 0 1 0
vn 0 -1 0
vn -1 0 0
vn 0 0 1
vn 1 0 0
vn 0 0 -1
vn 0 1 0
vn 0 1 0
vn -1 0 0
vn 0 0 1
vn 1 0 0
vn 0 0 -1
vn 0 1 0
vn 0 -1 0
vn 0 0 1
vn 1 0 0
vn 0 0 -1
vn 0 1 0
vn 0 -1 0
vn -1 0 0
vn 0 0 1
vn 1 0 0
vn 0 0 -1
vn 0 1 0
vn 0 -1 0
vn -1 0 0
vn 0 0 1
vn 1 0 0
vn 0 0 -1
vn 0 1 0
vn 0 -1 0
vn -1 0 0
vn 0 0 1
vn 1 0 0
vn 0 0 -1
vn 0 1 0
vn -1 0 0
vn 0 0 1
vn 0 0 -1
vn 0 1 0
vn -1 0 0
vn 0 0.00003083333331869375 0.9999999995246529
vn 1 0 0
vn 0 -0.00003083333331869375 -0.9999999995246529
vn 0 1 0
vn -1 0 0
vn 0 0 1
vn 0 0 -1
vn -1 0 0
vn 1 0 0
vn 1 0 0
vn 1 0 0
vn 0 -1 0
vn 0 -1 0
vn 0 -1 0
vn 0 1 0
vn 0 -1 0
vn -1 0 0
usemtl m_0f33d860-d15f-5882-7499-1c066591ca1a
f 3/1/1 2/2/1 1/3/1 4/4/1
f 5/5/2 3/6/2 4/7/2 6/8/2
f 7/9/3 5/10/3 6/11/3 8/12/3
f 2/13/4 7/14/4 8/15/4 1/16/4
f 5/17/5 7/18/5 2/19/5 3/20/5
f 4/21/6 1/22/6 8/23/6 6/24/6
f 11/25/7 10/26/7 9/27/7 12/28/7
f 13/29/8 11/30/8 12/31/8 14/32/8
f 15/33/9 13/34/9 14/35/9 16/36/9
f 10/37/10 15/38/10 16/39/10 9/40/10
f 13/41/11 15/42/11 10/43/11 11/44/11
f 12/45/12 9/46/12 16/47/12 14/48/12
f 12/49/13 9/50/13 17/51/13 18/52/13
f 19/53/14 12/54/14 18/55/14 20/56/14
f 21/57/15 19/58/15 20/59/15 22/60/15
f 9/61/16 21/62/16 22/63/16 17/64/16
f 19/65/17 21/66/17 9/67/17 12/68/17
f 18/69/18 17/70/18 22/71/18 20/72/18
f 4/73/19 1/74/19 23/75/19 24/76/19
f 25/77/20 4/78/20 24/79/20 26/80/20
f 27/81/21 25/82/21 26/83/21 28/84/21
f 1/85/22 27/86/22 28/87/22 23/88/22
f 25/89/23 27/90/23 1/91/23 4/92/23
f 24/93/24 23/94/24 28/95/24 26/96/24
f 31/97/25 30/98/25 29/99/25 32/100/25
f 33/101/26 31/102/26 32/103/26 34/104/26
f 35/105/27 33/106/27 34/107/27 36/108/27
f 30/109/28 35/110/28 36/111/28 29/112/28
f 33/113/29 35/114/29 30/115/29 31/116/29
f 32/117/30 29/118/30 36/119/30 34/120/30
f 39/121/31 38/122/31 37/123/31 40/124/31
f 41/125/32 39/126/32 40/127/32 42/128/32
f 43/129/33 41/130/33 42/131/33 44/132/33
f 38/133/34 43/134/34 44/135/34 37/136/34
f 41/137/35 43/138/35 38/139/35 39/140/35
f 40/141/36 37/142/36 44/143/36 42/144/36
f 47/145/37 46/146/37 45/147/37 48/148/37
f 49/149/38 47/150/38 48/151/38 50/152/38
f 51/153/39 49/154/39 50/155/39 52/156/39
f 46/157/40 51/158/40 52/159/40 45/160/40
f 49/161/41 51/162/41 46/163/41 47/164/41
f 48/165/42 45/166/42 52/167/42 50/168/42
f 55/169/43 54/170/43 53/171/43 56/172/43
f 57/173/44 55/174/44 56/175/44 58/176/44
f 59/177/45 57/178/45 58/179/45 60/180/45
f 54/181/46 59/182/46 60/183/46 53/184/46
f 57/185/47 59/186/47 54/187/47 55/188/47
f 56/189/48 53/190/48 60/191/48 58/192/48
f 63/193/49 62/194/49 61/195/49 64/196/49
f 65/197/50 63/198/50 64/199/50 66/200/50
f 67/201/51 65/202/51 66/203/51 68/204/51
f 62/205/52 67/206/52 68/207/52 61/208/52
f 65/209/53 67/210/53 62/211/53 63/212/53
f 64/213/54 61/214/54 68/215/54 66/216/54
f 71/217/55 70/218/55 69/219/55 72/220/55
f 73/221/56 71/222/56 72/223/56 74/224/56
f 75/225/57 73/226/57 74/227/57 76/228/57
f 70/229/58 75/230/58 76/231/58 69/232/58
f 73/233/59 75/234/59 70/235/59 71/236/59
f 72/237/60 69/238/60 76/239/60 74/240/60
f 79/241/61 78/242/61 77/243/61 80/244/61
f 81/245/62 79/246/62 80/247/62 82/248/62
f 83/249/63 81/250/63 82/251/63 84/252/63
f 78/253/64 83/254/64 84/255/64 77/256/64
f 81/257/65 83/258/65 78/259/65 79/260/65
f 80/261/66 77/262/66 84/263/66 82/264/66
f 87/265/67 86/266/67 85/267/67 88/268/67
f 89/269/68 87/270/68 88/271/68 90/272/68
f 91/273/69 89/274/69 90/275/69 92/276/69
f 86/277/70 91/278/70 92/279/70 85/280/70
f 89/281/71 91/282/71 86/283/71 87/284/71
f 88/285/72 85/286/72 92/287/72 90/288/72
f 95/289/73 94/290/73 93/291/73 96/292/73
f 97/293/74 95/294/74 96/295/74 98/296/74
f 99/297/75 97/298/75 98/299/75 100/300/75
f 94/301/76 99/302/76 100/303/76 93/304/76
f 97/305/77 99/306/77 94/307/77 95/308/77
f 96/309/78 93/310/78 100/311/78 98/312/78
f 103/313/79 102/314/79 101/315/79 104/316/79
f 105/317/80 103/318/80 104/319/80 106/320/80
f 107/321/81 105/322/81 106/323/81 108/324/81
f 102/325/82 107/326/82 108/327/82 101/328/82
f 105/329/83 107/330/83 102/331/83 103/332/83
f 104/333/84 101/334/84 108/335/84 106/336/84
f 113/337/85 111/338/85 112/339/85 114/340/85
f 110/341/86 115/342/86 116/343/86 109/344/86
f 113/345/87 115/346/87 110/347/87 111/348/87
f 112/349/88 109/350/88 116/351/88 114/352/88
f 119/353/89 118/354/89 117/355/89 120/356/89
f 121/357/90 119/358/90 120/359/90 122/360/90
f 123/361/91 121/362/91 122/363/91 124/364/91
f 118/365/92 123/366/92 124/367/92 117/368/92
f 121/369/93 123/370/93 118/371/93 119/372/93
f 120/373/94 117/374/94 124/375/94 122/376/94
f 127/377/95 126/378/95 125/379/95 128/380/95
f 129/381/96 127/382/96 128/383/96 130/384/96
f 131/385/97 129/386/97 130/387/97 132/388/97
f 126/389/98 131/390/98 132/391/98 125/392/98
f 129/393/99 131/394/99 126/395/99 127/396/99
f 128/397/100 125/398/100 132/399/100 130/400/100
f 21/401/101 25/402/101 26/403/101 22/404/101
f 133/405/102 21/406/102 22/407/102 134/408/102
f 55/409/103 133/410/103 134/411/103 56/412/103
f 25/413/104 55/414/104 56/415/104 26/416/104
f 133/417/105 55/418/105 25/419/105 21/420/105
f 22/421/106 26/422/106 56/423/106 134/424/106
f 136/425/107 135/426/107 8/427/107 14/428/107
f 137/429/108 136/430/108 14/431/108 138/432/108
f 139/433/109 137/434/109 138/435/109 59/436/109
f 135/437/110 139/438/110 59/439/110 8/440/110
f 137/441/111 139/442/111 135/443/111 136/444/111
f 14/445/112 8/446/112 59/447/112 138/448/112
f 140/449/113 33/450/113 34/451/113 141/452/113
f 10/453/114 140/454/114 141/455/114 17/456/114
f 3/457/115 10/458/115 17/459/115 24/460/115
f 33/461/116 3/462/116 24/463/116 34/464/116
f 10/465/117 3/466/117 33/467/117 140/468/117
f 24/469/118 34/470/118 141/471/118 17/472/118
f 143/473/119 142/474/119 30/475/119 144/476/119
f 145/477/120 143/478/120 144/479/120 13/480/120
f 146/481/121 145/482/121 13/483/121 7/484/121
f 142/485/122 146/486/122 7/487/122 30/488/122
f 145/489/123 146/490/123 142/491/123 143/492/123
f 144/493/124 30/494/124 7/495/124 13/496/124
f 150/497/125 148/498/125 149/499/125 151/500/125
f 60/501/126 150/502/126 151/503/126 152/504/126
f 29/505/127 60/506/127 152/507/127 147/508/127
f 150/509/128 60/510/128 29/511/128 148/512/128
f 149/513/129 147/514/129 152/515/129 151/516/129
f 155/517/130 154/518/130 153/519/130 156/520/130
f 157/521/131 155/522/131 156/523/131 158/524/131
f 159/525/132 157/526/132 158/527/132 160/528/132
f 154/529/133 159/530/133 160/531/133 153/532/133
f 157/533/134 159/534/134 154/535/134 155/536/134
f 156/537/135 153/538/135 160/539/135 158/540/135
f 163/541/136 162/542/136 161/543/136 164/544/136
f 165/545/137 163/546/137 164/547/137 166/548/137
f 167/549/138 165/550/138 166/551/138 168/552/138
f 162/553/139 167/554/139 168/555/139 161/556/139
f 165/557/140 167/558/140 162/559/140 163/560/140
f 164/561/141 161/562/141 168/563/141 166/564/141
f 149/565/142 170/566/142 169/567/142 171/568/142
f 172/569/143 149/570/143 171/571/143 173/572/143
f 163/573/144 172/574/144 173/575/144 164/576/144
f 170/577/145 163/578/145 164/579/145 169/580/145
f 172/581/146 163/582/146 170/583/146 149/584/146
f 174/585/147 165/586/147 166/587/147 175/588/147
f 151/589/148 174/590/148 175/591/148 176/592/148
f 165/593/149 177/594/149 178/595/149 166/596/149
f 151/597/150 177/598/150 165/599/150 174/600/150
f 181/601/151 180/602/151 179/603/151 182/604/151
f 183/605/152 181/606/152 182/607/152 184/608/152
f 185/609/153 183/610/153 184/611/153 186/612/153
f 180/613/154 185/614/154 186/615/154 179/616/154
f 183/617/155 185/618/155 180/619/155 181/620/155
f 189/621/156 188/622/156 187/623/156 190/624/156
f 191/625/157 189/626/157 190/627/157 192/628/157
f 188/629/158 193/630/158 194/631/158 187/632/158
f 111/633/159 110/634/159 109/635/159 112/636/159
f 177/637/160 151/638/160 176/639/160 178/640/160
f 193/641/161 191/642/161 192/643/161 194/644/161
f 115/645/162 113/646/162 114/647/162 116/648/162
f 171/649/163 169/650/163 164/651/163 173/652/163
f 182/653/164 179/654/164 186/655/164 184/656/164
f 175/657/165 166/658/165 178/659/165 176/660/165
f 191/661/166 193/662/166 188/663/166 189/664/166
f 190/665/167 187/666/167 194/667/167 192/668/167
f 148/669/168 29/670/168 147/671/168 149/672/168