# Made in Blockbench 4.12.5
mtllib distiller.mtl

o base
v 0.5625 2.1875 -0.5
v 0.5625 2.6875 -0.5
v 0.5625 2.6875 -0.4375
v 0.5625 2.1875 -0.4375
v 0.5 2.6875 -0.4375
v 0.5 2.1875 -0.4375
v 0.5 2.6875 -0.5
v 0.5 2.1875 -0.5
v 0.5625 2.1875 1.4375
v 0.5625 2.6875 1.4375
v 0.5625 2.6875 1.5
v 0.5625 2.1875 1.5
v 0.5 2.6875 1.5
v 0.5 2.1875 1.5
v 0.5 2.6875 1.4375
v 0.5 2.1875 1.4375
v 0.5625 1.3125 1.4375
v 0.5625 1.3125 1.5
v 0.4375 2.1875 1.5
v 0.4375 1.3125 1.5
v 0.4375 2.1875 1.4375
v 0.4375 1.3125 1.4375
v 0.5625 1.3125 -0.5
v 0.5625 1.3125 -0.4375
v 0.4375 2.1875 -0.4375
v 0.4375 1.3125 -0.4375
v 0.4375 2.1875 -0.5
v 0.4375 1.3125 -0.5
v 2.5 1.3125 -0.5
v 2.5 2.6875 -0.5
v 2.5 2.6875 -0.4375
v 2.5 1.3125 -0.4375
v 2.4375 2.6875 -0.4375
v 2.4375 1.3125 -0.4375
v 2.4375 2.6875 -0.5
v 2.4375 1.3125 -0.5
v 2.4987500000000002 1.3125 1.4375
v 2.4987500000000002 2.6875 1.4375
v 2.4987500000000002 2.6875 1.5
v 2.4987500000000002 1.3125 1.5
v 2.4362500000000002 2.6875 1.5
v 2.4362500000000002 1.3125 1.5
v 2.4362500000000002 2.6875 1.4375
v 2.4362500000000002 1.3125 1.4375
v -0.43625 1.3125 1.4375
v -0.43625 2.1875 1.4375
v -0.43625 2.1875 1.5
v -0.43625 1.3125 1.5
v -0.49875 2.1875 1.5
v -0.49875 1.3125 1.5
v -0.49875 2.1875 1.4375
v -0.49875 1.3125 1.4375
v -0.4375 1.3125 -0.5
v -0.4375 2.1875 -0.5
v -0.4375 2.1875 -0.4375
v -0.4375 1.3125 -0.4375
v -0.5 2.1875 -0.4375
v -0.5 1.3125 -0.4375
v -0.5 2.1875 -0.5
v -0.5 1.3125 -0.5
v 1.75 0.5 2.125
v 1.75 1 2.125
v 1.75 1 2.375
v 1.75 0.5 2.375
v 1.625 1 2.375
v 1.625 0.5 2.375
v 1.625 1 2.125
v 1.625 0.5 2.125
v 2.375 0.5 2.125
v 2.375 1 2.125
v 2.375 1 2.375
v 2.375 0.5 2.375
v 2.25 1 2.375
v 2.25 0.5 2.375
v 2.25 1 2.125
v 2.25 0.5 2.125
v 1.5 0.625 1.25
v 1.5 0.875 1.25
v 1.5 0.875 1.375
v 1.5 0.625 1.375
v 0.5 0.875 1.375
v 0.5 0.625 1.375
v 0.5 0.875 1.25
v 0.5 0.625 1.25
v 2.1877500000000003 0.625 -0.375
v 2.1877500000000003 0.875 -0.375
v 2.1877500000000003 0.875 -0.25
v 2.1877500000000003 0.625 -0.25
v 1.50025 0.875 -0.25
v 1.50025 0.625 -0.25
v 1.50025 0.875 -0.375
v 1.50025 0.625 -0.375
v 0.5 0.625 -0.375
v 0.5 0.875 -0.375
v 0.5 0.875 -0.25
v 0.5 0.625 -0.25
v -0.1875 0.875 -0.25
v -0.1875 0.625 -0.25
v -0.1875 0.875 -0.375
v -0.1875 0.625 -0.375
v 2.3754999999999997 0.625 -0.1875
v 2.3754999999999997 0.875 -0.1875
v 2.3754999999999997 0.875 0.5
v 2.3754999999999997 0.625 0.5
v 2.2504999999999997 0.875 0.5
v 2.2504999999999997 0.625 0.5
v 2.2504999999999997 0.875 -0.1875
v 2.2504999999999997 0.625 -0.1875
v -0.25049999999999994 0.625 -0.1875
v -0.25049999999999994 0.875 -0.1875
v -0.25049999999999994 0.875 0.5
v -0.25049999999999994 0.625 0.5
v -0.37549999999999994 0.875 0.5
v -0.37549999999999994 0.625 0.5
v -0.37549999999999994 0.875 -0.1875
v -0.37549999999999994 0.625 -0.1875
v -0.18799999999999994 0.5 -0.4375
v -0.18799999999999994 1 -0.4375
v -0.18799999999999994 1 -0.1875
v -0.18799999999999994 0.5 -0.1875
v -0.43799999999999994 1 -0.1875
v -0.43799999999999994 0.5 -0.1875
v -0.43799999999999994 1 -0.4375
v -0.43799999999999994 0.5 -0.4375
v 2.4375 0.5 -0.4375
v 2.4375 1 -0.4375
v 2.4375 1 -0.1875
v 2.4375 0.5 -0.1875
v 2.1875 1 -0.1875
v 2.1875 0.5 -0.1875
v 2.1875 1 -0.4375
v 2.1875 0.5 -0.4375
v -0.4375 2.1875 1.4375
v -0.4375 1.3125 1.4375
v 0.5 2.5 -0.5
v 0.5 2.5 1.5
v -0.5 2.5 1.5
v -0.5 2.1875 1.5
v -0.5 2.5 -0.5
v 2.4375 2.6875 1.4375
v 2.4375 1.3125 1.4375
v 2.5 3 -0.5
v 2.5 3 1.5
v 2.5 2.6875 1.5
v 0.5 3 1.5
v 0.5 3 -0.5
v 2.5 1 -0.5
v 2.5 1.3125 1.5
v 2.5 1 1.5
v -0.5 1.3125 1.5
v -0.5 1 1.5
v -0.5 1 -0.5
v 2.5 1 2
v 2.5 2 2
v 2.5 2 2.5
v 2.5 1 2.5
v 1.5 2 2.5
v 1.5 1 2.5
v 1.5 2 2
v 1.5 1 2
v 1.5 0.5 -0.5
v 1.5 1 -0.5
v 1.5 1 0.5
v 1.5 0.5 0.5
v 0.5 1 0.5
v 0.5 0.5 0.5
v 0.5 1 -0.5
v 0.5 0.5 -0.5
v 2.5 0.5 0.5
v 2.5 1 0.5
v 2.5 0.5 1.5
v 1.5 1 1.5
v 1.5 0.5 1.5
v 0.5 1 1.5
v 0.5 0.5 1.5
v -0.5 0.5 1.5
v -0.5 1 0.5
v -0.5 0.5 0.5
v 0.5 0.5 1.50004625
v 0.5 2 1.5
v 0.5 2 2.5
v 0.5 0.5 2.50004625
v -0.5 2 2.5
v -0.5 0.5 2.50004625
v -0.5 2 1.5
v -0.5 0.5 1.50004625
v 2.5 0 -0.5
v 2.5 0.5 -0.5
v 2.5 0.5 2.5
v 2.5 0 2.5
v -0.5 0.5 2.5
v -0.5 0 2.5
v -0.5 0.5 -0.5
v -0.5 0 -0.5
vt 0.39843796875 0.3125
vt 0.39843796875 0.375
vt 0.40625 0.375
vt 0.40625 0.3125
vt 0.390625 0.3125
vt 0.390625 0.375
vt 0.39843796875 0.375
vt 0.39843796875 0.3125
vt 0.390625 0.3125
vt 0.390625 0.375
vt 0.39843796875 0.375
vt 0.39843796875 0.3125
vt 0.39843796875 0.3125
vt 0.39843796875 0.375
vt 0.40625 0.375
vt 0.40625 0.3125
vt 0 0
vt 0 1
vt 1 1
vt 1 0
vt 0 0
vt 0 1
vt 1 1
vt 1 0
vt 0.39843796875 0.3125
vt 0.39843796875 0.375
vt 0.40625 0.375
vt 0.40625 0.3125
vt 0.39843796875 0.3125
vt 0.39843796875 0.375
vt 0.40625 0.375
vt 0.40625 0.3125
vt 0.390625 0.3125
vt 0.390625 0.375
vt 0.39843796875 0.375
vt 0.39843796875 0.3125
vt 0.390625 0.3125
vt 0.390625 0.375
vt 0.39843796875 0.375
vt 0.39843796875 0.3125
vt 0 0
vt 0 1
vt 1 1
vt 1 0
vt 0 0
vt 0 1
vt 1 1
vt 1 0
vt 0.38281203125 0.3125
vt 0.38281203125 0.421875
vt 0.390625 0.421875
vt 0.390625 0.3125
vt 0.390625 0.3125
vt 0.390625 0.421875
vt 0.375 0.421875
vt 0.375 0.3125
vt 0.375 0.3125
vt 0.375 0.421875
vt 0.38281203125 0.421875
vt 0.38281203125 0.3125
vt 0 0
vt 0 1
vt 1 1
vt 1 0
vt 0 0
vt 0 1
vt 1 1
vt 1 0
vt 0 0
vt 0 1
vt 1 1
vt 1 0
vt 0.38281203125 0.3125
vt 0.38281203125 0.421875
vt 0.390625 0.421875
vt 0.390625 0.3125
vt 0 0
vt 0 1
vt 1 1
vt 1 0
vt 0.375 0.3125
vt 0.375 0.421875
vt 0.38281203125 0.421875
vt 0.38281203125 0.3125
vt 0.375 0.3125
vt 0.375 0.421875
vt 0.390625 0.421875
vt 0.390625 0.3125
vt 0 0
vt 0 1
vt 1 1
vt 1 0
vt 0 0
vt 0 1
vt 1 1
vt 1 0
vt 0.41406203125 0.3125
vt 0.41406203125 0.484375
vt 0.421875 0.484375
vt 0.421875 0.3125
vt 0.40625 0.3125
vt 0.40625 0.484375
vt 0.41406203125 0.484375
vt 0.41406203125 0.3125
vt 0.40625 0.3125
vt 0.40625 0.484375
vt 0.41406203125 0.484375
vt 0.41406203125 0.3125
vt 0.41406203125 0.3125
vt 0.41406203125 0.484375
vt 0.421875 0.484375
vt 0.421875 0.3125
vt 0 0
vt 0 1
vt 1 1
vt 1 0
vt 0 0
vt 0 1
vt 1 1
vt 1 0
vt 0.41406203125 0.3125
vt 0.41406203125 0.484375
vt 0.421875 0.484375
vt 0.421875 0.3125
vt 0.41406203125 0.3125
vt 0.41406203125 0.484375
vt 0.421875 0.484375
vt 0.421875 0.3125
vt 0.40625 0.3125
vt 0.40625 0.484375
vt 0.41406203125 0.484375
vt 0.41406203125 0.3125
vt 0.40625 0.3125
vt 0.40625 0.484375
vt 0.41406203125 0.484375
vt 0.41406203125 0.3125
vt 0 0
vt 0 1
vt 1 1
vt 1 0
vt 0 0
vt 0 1
vt 1 1
vt 1 0
vt 0.38281203125 0.3125
vt 0.38281203125 0.421875
vt 0.390625 0.421875
vt 0.390625 0.3125
vt 0.38281203125 0.3125
vt 0.38281203125 0.421875
vt 0.390625 0.421875
vt 0.390625 0.3125
vt 0.375 0.3125
vt 0.375 0.421875
vt 0.38281203125 0.421875
vt 0.38281203125 0.3125
vt 0.375 0.3125
vt 0.375 0.421875
vt 0.38281203125 0.421875
vt 0.38281203125 0.3125
vt 0 0
vt 0 1
vt 1 1
vt 1 0
vt 0 0
vt 0 1
vt 1 1
vt 1 0
vt 0.38281203125 0.3125
vt 0.38281203125 0.421875
vt 0.390625 0.421875
vt 0.390625 0.3125
vt 0.375 0.3125
vt 0.375 0.421875
vt 0.38281203125 0.421875
vt 0.38281203125 0.3125
vt 0.375 0.3125
vt 0.375 0.421875
vt 0.38281203125 0.421875
vt 0.38281203125 0.3125
vt 0.38281203125 0.3125
vt 0.38281203125 0.421875
vt 0.390625 0.421875
vt 0.390625 0.3125
vt 0 0
vt 0 1
vt 1 1
vt 1 0
vt 0 0
vt 0 1
vt 1 1
vt 1 0
vt 0.25 0.4375
vt 0.25 0.5
vt 0.28125 0.5
vt 0.28125 0.4375
vt 0.28125 0.4375
vt 0.28125 0.5
vt 0.296875 0.5
vt 0.296875 0.4375
vt 0.25 0.4375
vt 0.25 0.5
vt 0.28125 0.5
vt 0.28125 0.4375
vt 0.28125 0.4375
vt 0.28125 0.5
vt 0.296875 0.5
vt 0.296875 0.4375
vt 0 0
vt 0 1
vt 1 1
vt 1 0
vt 0 0
vt 0 1
vt 1 1
vt 1 0
vt 0.25 0.4375
vt 0.25 0.5
vt 0.28125 0.5
vt 0.28125 0.4375
vt 0.28125 0.4375
vt 0.28125 0.5
vt 0.296875 0.5
vt 0.296875 0.4375
vt 0.25 0.4375
vt 0.25 0.5
vt 0.28125 0.5
vt 0.28125 0.4375
vt 0.28125 0.4375
vt 0.28125 0.5
vt 0.296875 0.5
vt 0.296875 0.4375
vt 0 0
vt 0 1
vt 1 1
vt 1 0
vt 0 0
vt 0 1
vt 1 1
vt 1 0
vt 0 0
vt 0 1
vt 1 1
vt 1 0
vt 0 0.03125
vt 0 0.0625
vt 0.125 0.0625
vt 0.125 0.03125
vt 0 0
vt 0 1
vt 1 1
vt 1 0
vt 0 0.03125
vt 0 0.0625
vt 0.125 0.0625
vt 0.125 0.03125
vt 0 0.015625
vt 0 0.03125
vt 0.125 0.03125
vt 0.125 0.015625
vt 0 0.015625
vt 0 0.03125
vt 0.125 0.03125
vt 0.125 0.015625
vt 0 0
vt 0 1
vt 1 1
vt 1 0
vt 0 0.03125
vt 0 0.0625
vt 0.08593796875 0.0625
vt 0.08593796875 0.03125
vt 0 0
vt 0 1
vt 1 1
vt 1 0
vt 0 0.03125
vt 0 0.0625
vt 0.08593796875 0.0625
vt 0.08593796875 0.03125
vt 0 0.015625
vt 0 0.03125
vt 0.08593796875 0.03125
vt 0.08593796875 0.015625
vt 0 0.015625
vt 0 0.03125
vt 0.08593796875 0.03125
vt 0.08593796875 0.015625
vt 0 0
vt 0 1
vt 1 1
vt 1 0
vt 0 0.03125
vt 0 0.0625
vt 0.08593796875 0.0625
vt 0.08593796875 0.03125
vt 0 0
vt 0 1
vt 1 1
vt 1 0
vt 0 0.03125
vt 0 0.0625
vt 0.08593796875 0.0625
vt 0.08593796875 0.03125
vt 0 0.015625
vt 0 0.03125
vt 0.08593796875 0.03125
vt 0.08593796875 0.015625
vt 0 0.015625
vt 0 0.03125
vt 0.08593796875 0.03125
vt 0.08593796875 0.015625
vt 0 0.03125
vt 0 0.0625
vt 0.08593796875 0.0625
vt 0.08593796875 0.03125
vt 0 0
vt 0 1
vt 1 1
vt 1 0
vt 0 0.03125
vt 0 0.0625
vt 0.08593796875 0.0625
vt 0.08593796875 0.03125
vt 0 0
vt 0 1
vt 1 1
vt 1 0
vt 0 0.015625
vt 0 0.03125
vt 0.08593796875 0.03125
vt 0.08593796875 0.015625
vt 0 0.015625
vt 0 0.03125
vt 0.08593796875 0.03125
vt 0.08593796875 0.015625
vt 0 0
vt 0 1
vt 1 1
vt 1 0
vt 0 0
vt 0 1
vt 1 1
vt 1 0
vt 0 0.015625
vt 0 0.03125
vt 0.08593796875 0.03125
vt 0.08593796875 0.015625
vt 0 0.015625
vt 0 0.03125
vt 0.08593796875 0.03125
vt 0.08593796875 0.015625
vt 0.34375 0.4375
vt 0.34375 0.5
vt 0.375 0.5
vt 0.375 0.4375
vt 0.34375 0.4375
vt 0.34375 0.5
vt 0.375 0.5
vt 0.375 0.4375
vt 0.34375 0.4375
vt 0.34375 0.5
vt 0.375 0.5
vt 0.375 0.4375
vt 0.34375 0.4375
vt 0.34375 0.5
vt 0.375 0.5
vt 0.375 0.4375
vt 0 0
vt 0 1
vt 1 1
vt 1 0
vt 0 0
vt 0 1
vt 1 1
vt 1 0
vt 0.34375 0.4375
vt 0.34375 0.5
vt 0.375 0.5
vt 0.375 0.4375
vt 0.34375 0.4375
vt 0.34375 0.5
vt 0.375 0.5
vt 0.375 0.4375
vt 0.34375 0.4375
vt 0.34375 0.5
vt 0.375 0.5
vt 0.375 0.4375
vt 0.34375 0.4375
vt 0.34375 0.5
vt 0.375 0.5
vt 0.375 0.4375
vt 0 0
vt 0 1
vt 1 1
vt 1 0
vt 0 0
vt 0 1
vt 1 1
vt 1 0
vt 0 0
vt 0 1
vt 1 1
vt 1 0
vt 0.890625 0.28125
vt 0.890625 0.390625
vt 1 0.390625
vt 1 0.28125
vt 0.765625 0.171875
vt 0.765625 0.28125
vt 1 0.28125
vt 1 0.171875
vt 0.890625 0.28125
vt 0.890625 0.390625
vt 1 0.390625
vt 1 0.28125
vt 0 0
vt 0 1
vt 1 1
vt 1 0
vt 0 0
vt 0 1
vt 1 1
vt 1 0
vt 0.375 0.234375
vt 0.375 0.27343796875000004
vt 0.625 0.27343796875000004
vt 0.625 0.234375
vt 0.375 0.19531203124999996
vt 0.375 0.234375
vt 0.5 0.234375
vt 0.5 0.19531203124999996
vt 0.375 0.234375
vt 0.375 0.27343796875000004
vt 0.625 0.27343796875000004
vt 0.625 0.234375
vt 0.375 0.19531203124999996
vt 0.375 0.234375
vt 0.5 0.234375
vt 0.5 0.19531203124999996
vt 0.375 0.6875
vt 0.375 0.8125
vt 0.625 0.8125
vt 0.625 0.6875
vt 0.375 0.6875
vt 0.375 0.8125
vt 0.625 0.8125
vt 0.625 0.6875
vt 0.765625 0
vt 0.765625 0.171875
vt 1 0.171875
vt 1 0
vt 0.765625 0
vt 0.765625 0.171875
vt 1 0.171875
vt 1 0
vt 0.765625 0
vt 0.765625 0.171875
vt 1 0.171875
vt 1 0
vt 0.765625 0
vt 0.765625 0.171875
vt 1 0.171875
vt 1 0
vt 0 0
vt 0 1
vt 1 1
vt 1 0
vt 1 1
vt 0 1
vt 0 0
vt 1 0
vt 0.375 0.234375
vt 0.375 0.27343796875000004
vt 0.625 0.27343796875000004
vt 0.625 0.234375
vt 0.375 0.234375
vt 0.375 0.27343796875000004
vt 0.625 0.27343796875000004
vt 0.625 0.234375
vt 0.375 0.234375
vt 0.375 0.27343796875000004
vt 0.625 0.27343796875000004
vt 0.625 0.234375
vt 0.375 0.234375
vt 0.375 0.27343796875000004
vt 0.625 0.27343796875000004
vt 0.625 0.234375
vt 0.375 0.5625
vt 0.375 0.8125
vt 0.625 0.8125
vt 0.625 0.5625
vt 0.375 0.5625
vt 0.375 0.8125
vt 0.625 0.8125
vt 0.625 0.5625
vt 0.375 0.27343796875000004
vt 0.375 0.3125
vt 0.75 0.3125
vt 0.75 0.27343796875000004
vt 0.375 0.27343796875000004
vt 0.375 0.234375
vt 0.625 0.234375
vt 0.625 0.27343796875000004
vt 0.375 0.27343796875000004
vt 0.375 0.3125
vt 0.75 0.3125
vt 0.75 0.27343796875000004
vt 0 0.0625
vt 0 0.3125
vt 0.375 0.3125
vt 0.375 0.0625
vt 0 0.0625
vt 0 0.3125
vt 0.375 0.3125
vt 0.375 0.0625
vt 0 0.3125
vt 0 0.4375
vt 0.0625 0.4375
vt 0.0625 0.3125
vt 0.125 0.3125
vt 0.125 0.4375
vt 0.25 0.4375
vt 0.25 0.3125
vt 0.0625 0.3125
vt 0.0625 0.4375
vt 0.125 0.4375
vt 0.125 0.3125
vt 0 0.3125
vt 0 0.4375
vt 0.125 0.4375
vt 0.125 0.3125
vt 0 0.3125
vt 0 0.4375
vt 0.0625 0.4375
vt 0.0625 0.3125
vt 0 0.3125
vt 0 0.4375
vt 0.0625 0.4375
vt 0.0625 0.3125
vt 0 0.375
vt 0 0.4375
vt 0.125 0.4375
vt 0.125 0.375
vt 0 0.375
vt 0 0.4375
vt 0.125 0.4375
vt 0.125 0.375
vt 0 0.375
vt 0 0.4375
vt 0.125 0.4375
vt 0.125 0.375
vt 0.125 0.4375
vt 0.125 0.5
vt 0.25 0.5
vt 0.25 0.4375
vt 0 0
vt 0 1
vt 1 1
vt 1 0
vt 0 0
vt 0 1
vt 1 1
vt 1 0
vt 0 0.4375
vt 0 0.5
vt 0.125 0.5
vt 0.125 0.4375
vt 0 0.375
vt 0 0.4375
vt 0.125 0.4375
vt 0.125 0.375
vt 0 0.375
vt 0 0.4375
vt 0.125 0.4375
vt 0.125 0.375
vt 0 0.375
vt 0 0.4375
vt 0.125 0.4375
vt 0.125 0.375
vt 0 0
vt 0 1
vt 1 1
vt 1 0
vt 0 0.375
vt 0 0.4375
vt 0.125 0.4375
vt 0.125 0.375
vt 0 0
vt 0 1
vt 1 1
vt 1 0
vt 0 0.375
vt 0 0.4375
vt 0.125 0.4375
vt 0.125 0.375
vt 0 0
vt 0 1
vt 1 1
vt 1 0
vt 0.375 0.8125
vt 0.375 1
vt 0.5 1
vt 0.5 0.8125
vt 0.5 0.8125
vt 0.5 1
vt 0.625 1
vt 0.625 0.8125
vt 0.375 0.8125
vt 0.375 1
vt 0.5 1
vt 0.5 0.8125
vt 0.5 0.8125
vt 0.5 1
vt 0.625 1
vt 0.625 0.8125
vt 0.25 0.3125
vt 0.25 0.4375
vt 0.375 0.4375
vt 0.375 0.3125
vt 0 0.5625
vt 0 0.625
vt 0.375 0.625
vt 0.375 0.5625
vt 0 0.5
vt 0 0.5625
vt 0.375 0.5625
vt 0.375 0.5
vt 0 0.5625
vt 0 0.625
vt 0.375 0.625
vt 0.375 0.5625
vt 0 0.03125
vt 0 0.0625
vt 0.08593796875 0.0625
vt 0.08593796875 0.03125
vt 0.125 0.4375
vt 0.125 0.5
vt 0.25 0.5
vt 0.25 0.4375
vt 0 0.5625
vt 0 0.625
vt 0.375 0.625
vt 0.375 0.5625
vt 0 0.03125
vt 0 0.0625
vt 0.08593796875 0.0625
vt 0.08593796875 0.03125
vt 0 0
vt 0 1
vt 1 1
vt 1 0
vt 0 0
vt 0 1
vt 1 1
vt 1 0
vt 0 0
vt 0 1
vt 1 1
vt 1 0
vt 0.625 0.6328120312500001
vt 0.625 1
vt 1 1
vt 1 0.6328120312500001
vt 0 0.625
vt 0 1
vt 0.375 1
vt 0.375 0.625
vt 0.375 0.27343796875000004
vt 0.375 0.234375
vt 0.625 0.234375
vt 0.625 0.27343796875000004
vn 1 0 0
vn 0 0 1
vn -1 0 0
vn 0 0 -1
vn 0 1 0
vn 0 -1 0
vn 1 0 0
vn 0 0 1
vn -1 0 0
vn 0 0 -1
vn 0 1 0
vn 0 -1 0
vn 1 0 0
vn 0 0 1
vn -1 0 0
vn 0 0 -1
vn 0 1 0
vn 0 -1 0
vn 1 0 0
vn 0 0 1
vn -1 0 0
vn 0 0 -1
vn 0 1 0
vn 0 -1 0
vn 1 0 0
vn 0 0 1
vn -1 0 0
vn 0 0 -1
vn 0 1 0
vn 0 -1 0
vn 1 0 0
vn 0 0 1
vn -1 0 0
vn 0 0 -1
vn 0 1 0
vn 0 -1 0
vn 1 0 0
vn 0 0 1
vn -1 0 0
vn 0 0 -1
vn 0 1 0
vn 0 -1 0
vn 1 0 0
vn 0 0 1
vn -1 0 0
vn 0 0 -1
vn 0 1 0
vn 0 -1 0
vn 1 0 0
vn 0 0 1
vn -1 0 0
vn 0 0 -1
vn 0 1 0
vn 0 -1 0
vn 1 0 0
vn 0 0 1
vn -1 0 0
vn 0 0 -1
vn 0 1 0
vn 0 -1 0
vn 1 0 0
vn 0 0 1
vn -1 0 0
vn 0 0 -1
vn 0 1 0
vn 0 -1 0
vn 1 0 0
vn 0 0 1
vn -1 0 0
vn 0 0 -1
vn 0 1 0
vn 0 -1 0
vn 1 0 0
vn 0 0 1
vn -1 0 0
vn 0 0 -1
vn 0 1 0
vn 0 -1 0
vn 1 0 0
vn 0 0 1
vn -1 0 0
vn 0 0 -1
vn 0 1 0
vn 0 -1 0
vn 0 0 1
vn 0 0 -1
vn 0 1 0
vn 0 -1 0
vn 1 0 0
vn 0 0 1
vn -1 0 0
vn 0 0 -1
vn 0 1 0
vn 0 -1 0
vn 1 0 0
vn 0 0 1
vn -1 0 0
vn 0 0 -1
vn 0 1 0
vn 0 -1 0
vn 1 0 0
vn 0 0 1
vn -1 0 0
vn 0 0 -1
vn 0 1 0
vn 0 -1 0
vn 1 0 0
vn 0 0 1
vn -1 0 0
vn 0 0 -1
vn 0 1 0
vn 0 -1 0
vn 1 0 0
vn 0 0 1
vn -1 0 0
vn 0 0 -1
vn 0 1 0
vn 0 1 0
vn 1 0 0
vn 0 0 1
vn -1 0 0
vn 0 0 -1
vn 0 1 0
vn 0 -1 0
vn 0 0 1
vn -1 0 0
vn 0 0 -1
vn 0 1 0
vn 0 -1 0
vn 1 0 0
vn 0 0 1
vn -1 0 0
vn 0 0 -1
vn 0 1 0
vn 0 -1 0
vn 1 0 0
vn 0 0 1
vn -1 0 0
vn 0 0 -1
vn 0 1 0
vn 0 -1 0
vn 1 0 0
vn 0 0 1
vn -1 0 0
vn 0 0 -1
vn 0 1 0
vn 1 0 0
vn 0 0 1
vn 0 0 -1
vn 0 1 0
vn 1 0 0
vn 0 0.00003083333331869375 0.9999999995246529
vn -1 0 0
vn 0 -0.00003083333331869375 -0.9999999995246529
vn 0 1 0
vn 1 0 0
vn 0 0 1
vn 0 0 -1
vn 1 0 0
vn -1 0 0
vn -1 0 0
vn -1 0 0
vn 0 -1 0
vn 0 -1 0
vn 0 -1 0
vn 0 1 0
vn 0 -1 0
vn 1 0 0
usemtl m_0f33d860-d15f-5882-7499-1c066591ca1a
f 1/1/1 2/2/1 3/3/1 4/4/1
f 4/5/2 3/6/2 5/7/2 6/8/2
f 6/9/3 5/10/3 7/11/3 8/12/3
f 8/13/4 7/14/4 2/15/4 1/16/4
f 2/17/5 7/18/5 5/19/5 3/20/5
f 8/21/6 1/22/6 4/23/6 6/24/6
f 9/25/7 10/26/7 11/27/7 12/28/7
f 12/29/8 11/30/8 13/31/8 14/32/8
f 14/33/9 13/34/9 15/35/9 16/36/9
f 16/37/10 15/38/10 10/39/10 9/40/10
f 10/41/11 15/42/11 13/43/11 11/44/11
f 16/45/12 9/46/12 12/47/12 14/48/12
f 17/49/13 9/50/13 12/51/13 18/52/13
f 18/53/14 12/54/14 19/55/14 20/56/14
f 20/57/15 19/58/15 21/59/15 22/60/15
f 22/61/16 21/62/16 9/63/16 17/64/16
f 9/65/17 21/66/17 19/67/17 12/68/17
f 22/69/18 17/70/18 18/71/18 20/72/18
f 23/73/19 1/74/19 4/75/19 24/76/19
f 24/77/20 4/78/20 25/79/20 26/80/20
f 26/81/21 25/82/21 27/83/21 28/84/21
f 28/85/22 27/86/22 1/87/22 23/88/22
f 1/89/23 27/90/23 25/91/23 4/92/23
f 28/93/24 23/94/24 24/95/24 26/96/24
f 29/97/25 30/98/25 31/99/25 32/100/25
f 32/101/26 31/102/26 33/103/26 34/104/26
f 34/105/27 33/106/27 35/107/27 36/108/27
f 36/109/28 35/110/28 30/111/28 29/112/28
f 30/113/29 35/114/29 33/115/29 31/116/29
f 36/117/30 29/118/30 32/119/30 34/120/30
f 37/121/31 38/122/31 39/123/31 40/124/31
f 40/125/32 39/126/32 41/127/32 42/128/32
f 42/129/33 41/130/33 43/131/33 44/132/33
f 44/133/34 43/134/34 38/135/34 37/136/34
f 38/137/35 43/138/35 41/139/35 39/140/35
f 44/141/36 37/142/36 40/143/36 42/144/36
f 45/145/37 46/146/37 47/147/37 48/148/37
f 48/149/38 47/150/38 49/151/38 50/152/38
f 50/153/39 49/154/39 51/155/39 52/156/39
f 52/157/40 51/158/40 46/159/40 45/160/40
f 46/161/41 51/162/41 49/163/41 47/164/41
f 52/165/42 45/166/42 48/167/42 50/168/42
f 53/169/43 54/170/43 55/171/43 56/172/43
f 56/173/44 55/174/44 57/175/44 58/176/44
f 58/177/45 57/178/45 59/179/45 60/180/45
f 60/181/46 59/182/46 54/183/46 53/184/46
f 54/185/47 59/186/47 57/187/47 55/188/47
f 60/189/48 53/190/48 56/191/48 58/192/48
f 61/193/49 62/194/49 63/195/49 64/196/49
f 64/197/50 63/198/50 65/199/50 66/200/50
f 66/201/51 65/202/51 67/203/51 68/204/51
f 68/205/52 67/206/52 62/207/52 61/208/52
f 62/209/53 67/210/53 65/211/53 63/212/53
f 68/213/54 61/214/54 64/215/54 66/216/54
f 69/217/55 70/218/55 71/219/55 72/220/55
f 72/221/56 71/222/56 73/223/56 74/224/56
f 74/225/57 73/226/57 75/227/57 76/228/57
f 76/229/58 75/230/58 70/231/58 69/232/58
f 70/233/59 75/234/59 73/235/59 71/236/59
f 76/237/60 69/238/60 72/239/60 74/240/60
f 77/241/61 78/242/61 79/243/61 80/244/61
f 80/245/62 79/246/62 81/247/62 82/248/62
f 82/249/63 81/250/63 83/251/63 84/252/63
f 84/253/64 83/254/64 78/255/64 77/256/64
f 78/257/65 83/258/65 81/259/65 79/260/65
f 84/261/66 77/262/66 80/263/66 82/264/66
f 85/265/67 86/266/67 87/267/67 88/268/67
f 88/269/68 87/270/68 89/271/68 90/272/68
f 90/273/69 89/274/69 91/275/69 92/276/69
f 92/277/70 91/278/70 86/279/70 85/280/70
f 86/281/71 91/282/71 89/283/71 87/284/71
f 92/285/72 85/286/72 88/287/72 90/288/72
f 93/289/73 94/290/73 95/291/73 96/292/73
f 96/293/74 95/294/74 97/295/74 98/296/74
f 98/297/75 97/298/75 99/299/75 100/300/75
f 100/301/76 99/302/76 94/303/76 93/304/76
f 94/305/77 99/306/77 97/307/77 95/308/77
f 100/309/78 93/310/78 96/311/78 98/312/78
f 101/313/79 102/314/79 103/315/79 104/316/79
f 104/317/80 103/318/80 105/319/80 106/320/80
f 106/321/81 105/322/81 107/323/81 108/324/81
f 108/325/82 107/326/82 102/327/82 101/328/82
f 102/329/83 107/330/83 105/331/83 103/332/83
f 108/333/84 101/334/84 104/335/84 106/336/84
f 112/337/85 111/338/85 113/339/85 114/340/85
f 116/341/86 115/342/86 110/343/86 109/344/86
f 110/345/87 115/346/87 113/347/87 111/348/87
f 116/349/88 109/350/88 112/351/88 114/352/88
f 117/353/89 118/354/89 119/355/89 120/356/89
f 120/357/90 119/358/90 121/359/90 122/360/90
f 122/361/91 121/362/91 123/363/91 124/364/91
f 124/365/92 123/366/92 118/367/92 117/368/92
f 118/369/93 123/370/93 121/371/93 119/372/93
f 124/373/94 117/374/94 120/375/94 122/376/94
f 125/377/95 126/378/95 127/379/95 128/380/95
f 128/381/96 127/382/96 129/383/96 130/384/96
f 130/385/97 129/386/97 131/387/97 132/388/97
f 132/389/98 131/390/98 126/391/98 125/392/98
f 126/393/99 131/394/99 129/395/99 127/396/99
f 132/397/100 125/398/100 128/399/100 130/400/100
f 26/401/101 25/402/101 21/403/101 22/404/101
f 22/405/102 21/406/102 133/407/102 134/408/102
f 134/409/103 133/410/103 55/411/103 56/412/103
f 56/413/104 55/414/104 25/415/104 26/416/104
f 25/417/105 55/418/105 133/419/105 21/420/105
f 56/421/106 26/422/106 22/423/106 134/424/106
f 8/425/107 135/426/107 136/427/107 14/428/107
f 14/429/108 136/430/108 137/431/108 138/432/108
f 138/433/109 137/434/109 139/435/109 59/436/109
f 59/437/110 139/438/110 135/439/110 8/440/110
f 135/441/111 139/442/111 137/443/111 136/444/111
f 59/445/112 8/446/112 14/447/112 138/448/112
f 34/449/113 33/450/113 140/451/113 141/452/113
f 141/453/114 140/454/114 10/455/114 17/456/114
f 17/457/115 10/458/115 3/459/115 24/460/115
f 24/461/116 3/462/116 33/463/116 34/464/116
f 33/465/117 3/466/117 10/467/117 140/468/117
f 141/469/118 34/470/118 24/471/118 17/472/118
f 30/473/119 142/474/119 143/475/119 144/476/119
f 144/477/120 143/478/120 145/479/120 13/480/120
f 13/481/121 145/482/121 146/483/121 7/484/121
f 7/485/122 146/486/122 142/487/122 30/488/122
f 142/489/123 146/490/123 145/491/123 143/492/123
f 7/493/124 30/494/124 144/495/124 13/496/124
f 149/497/125 148/498/125 150/499/125 151/500/125
f 151/501/126 150/502/126 60/503/126 152/504/126
f 152/505/127 60/506/127 29/507/127 147/508/127
f 29/509/128 60/510/128 150/511/128 148/512/128
f 152/513/129 147/514/129 149/515/129 151/516/129
f 153/517/130 154/518/130 155/519/130 156/520/130
f 156/521/131 155/522/131 157/523/131 158/524/131
f 158/525/132 157/526/132 159/527/132 160/528/132
f 160/529/133 159/530/133 154/531/133 153/532/133
f 154/533/134 159/534/134 157/535/134 155/536/134
f 160/537/135 153/538/135 156/539/135 158/540/135
f 161/541/136 162/542/136 163/543/136 164/544/136
f 164/545/137 163/546/137 165/547/137 166/548/137
f 166/549/138 165/550/138 167/551/138 168/552/138
f 168/553/139 167/554/139 162/555/139 161/556/139
f 162/557/140 167/558/140 165/559/140 163/560/140
f 168/561/141 161/562/141 164/563/141 166/564/141
f 169/565/142 170/566/142 149/567/142 171/568/142
f 171/569/143 149/570/143 172/571/143 173/572/143
f 173/573/144 172/574/144 163/575/144 164/576/144
f 164/577/145 163/578/145 170/579/145 169/580/145
f 170/581/146 163/582/146 172/583/146 149/584/146
f 166/585/147 165/586/147 174/587/147 175/588/147
f 175/589/148 174/590/148 151/591/148 176/592/148
f 178/593/149 177/594/149 165/595/149 166/596/149
f 165/597/150 177/598/150 151/599/150 174/600/150
f 179/601/151 180/602/151 181/603/151 182/604/151
f 182/605/152 181/606/152 183/607/152 184/608/152
f 184/609/153 183/610/153 185/611/153 186/612/153
f 186/613/154 185/614/154 180/615/154 179/616/154
f 180/617/155 185/618/155 183/619/155 181/620/155
f 187/621/156 188/622/156 189/623/156 190/624/156
f 190/625/157 189/626/157 191/627/157 192/628/157
f 194/629/158 193/630/158 188/631/158 187/632/158
f 109/633/159 110/634/159 111/635/159 112/636/159
f 176/637/160 151/638/160 177/639/160 178/640/160
f 192/641/161 191/642/161 193/643/161 194/644/161
f 114/645/162 113/646/162 115/647/162 116/648/162
f 164/649/163 169/650/163 171/651/163 173/652/163
f 186/653/164 179/654/164 182/655/164 184/656/164
f 178/657/165 166/658/165 175/659/165 176/660/165
f 188/661/166 193/662/166 191/663/166 189/664/166
f 194/665/167 187/666/167 190/667/167 192/668/167
f 147/669/168 29/670/168 148/671/168 149/672/168