# Made in Blockbench 4.12.4
mtllib gas_turbine.mtl

o rotor
v -0.375 -0.374998 -0.5
v -0.375 0.37500199999999995 -0.5
v 0.375 0.37500199999999995 -0.5
v 0.375 -0.374998 -0.5
v 0.375 0.37500100000000003 0.5
v 0.375 -0.37499899999999997 0.5
v -0.375 0.37500100000000003 0.5
v -0.375 -0.37499899999999997 0.5
vt 0 0.05468799999999996
vt 0 0.14843799999999996
vt 0.09375 0.14843799999999996
vt 0.09375 0.05468799999999996
vt 0.09375 0.05468799999999996
vt 0.09375 0.14843799999999996
vt 0.21875 0.14843799999999996
vt 0.21875 0.05468799999999996
vt 0 0.05468799999999996
vt 0 0.14843799999999996
vt 0.09375 0.14843799999999996
vt 0.09375 0.05468799999999996
vt 0.09375 0.05468799999999996
vt 0.09375 0.14843799999999996
vt 0.21875 0.14843799999999996
vt 0.21875 0.05468799999999996
vt 0.09375 0.14843799999999996
vt 0.21875 0.14843799999999996
vt 0.21875 0.05468799999999996
vt 0.09375 0.05468799999999996
vt 0.09375 0.14843799999999996
vt 0.21875 0.14843799999999996
vt 0.21875 0.05468799999999996
vt 0.09375 0.05468799999999996
vn 0 0 -1
vn 1 0 0
vn 0 0 1
vn -1 0 0
vn 0 0.9999999999995002 9.999999999172336e-7
vn 0 -0.9999999999995002 -9.999999999727448e-7
usemtl m_688c8959-176d-64db-e258-1ed8e2e8a88e
f 1/1/1 2/2/1 3/3/1 4/4/1
f 4/5/2 3/6/2 5/7/2 6/8/2
f 6/9/3 5/10/3 7/11/3 8/12/3
f 8/13/4 7/14/4 2/15/4 1/16/4
f 2/17/5 7/18/5 5/19/5 3/20/5
f 8/21/6 1/22/6 4/23/6 6/24/6